<svg class="site-logo" xmlns="http://www.w3.org/2000/svg" xmlns:xlink="http://www.w3.org/1999/xlink"
	 viewBox="0 0 276.3 46.1" width="277" height="47">
<style type="text/css">
	.st0{fill:#7C5F55;}
	.st1{fill:#1AC473;}
</style>
<g>
	<g>
		<g>
			<path class="st0" d="M166.9,9c0-0.6,0.5-1.1,1.1-1.1h0.2c0.5,0,0.8,0.2,1,0.6l3.7,5.8l3.7-5.9c0.2-0.4,0.5-0.6,1-0.6h0.2
				c0.6,0,1.1,0.5,1.1,1.1v10.3c0,0.6-0.5,1.1-1.1,1.1c-0.6,0-1.1-0.5-1.1-1.1v-7.4l-3,4.5c-0.2,0.4-0.5,0.6-0.9,0.6
				c-0.4,0-0.7-0.2-0.9-0.6l-3-4.5v7.4c0,0.6-0.5,1.1-1.1,1.1c-0.6,0-1.1-0.5-1.1-1.1V9z"/>
			<path class="st0" d="M181.9,8.5c0-0.6,0.5-1,1.2-1c0.7,0,1.2,0.4,1.2,1v0.1c0,0.6-0.5,1.1-1.2,1.1c-0.7,0-1.2-0.4-1.2-1.1V8.5z
				 M182.1,12c0-0.6,0.5-1.1,1.1-1.1c0.6,0,1.1,0.5,1.1,1.1v7.4c0,0.6-0.5,1.1-1.1,1.1c-0.6,0-1.1-0.5-1.1-1.1V12z"/>
			<path class="st0" d="M187,12c0-0.6,0.5-1.1,1.1-1.1c0.6,0,1.1,0.5,1.1,1.1v0.5c0.6-0.9,1.5-1.6,2.9-1.6c2.1,0,3.3,1.4,3.3,3.6v5
				c0,0.6-0.5,1.1-1.1,1.1c-0.6,0-1.1-0.5-1.1-1.1V15c0-1.4-0.7-2.3-2-2.3c-1.2,0-2.1,0.9-2.1,2.3v4.3c0,0.6-0.5,1.1-1.1,1.1
				c-0.6,0-1.1-0.5-1.1-1.1V12z"/>
			<path class="st0" d="M197.8,8.5c0-0.6,0.5-1,1.2-1c0.7,0,1.2,0.4,1.2,1v0.1c0,0.6-0.5,1.1-1.2,1.1c-0.7,0-1.2-0.4-1.2-1.1V8.5z
				 M198,12c0-0.6,0.5-1.1,1.1-1.1c0.6,0,1.1,0.5,1.1,1.1v7.4c0,0.6-0.5,1.1-1.1,1.1c-0.6,0-1.1-0.5-1.1-1.1V12z"/>
			<path class="st0" d="M202.5,19.4c-0.2-0.1-0.4-0.4-0.4-0.7c0-0.5,0.4-0.9,0.9-0.9c0.2,0,0.3,0.1,0.5,0.1c0.9,0.6,1.8,0.9,2.7,0.9
				c0.9,0,1.4-0.4,1.4-1v0c0-0.7-1-1-2.1-1.3c-1.4-0.4-2.9-0.9-2.9-2.7v0c0-1.8,1.5-2.8,3.3-2.8c1,0,2,0.3,2.9,0.8
				c0.3,0.2,0.5,0.4,0.5,0.8c0,0.5-0.4,0.9-0.9,0.9c-0.2,0-0.3,0-0.4-0.1c-0.8-0.4-1.5-0.6-2.2-0.6c-0.8,0-1.3,0.4-1.3,0.9v0
				c0,0.7,1,1,2.1,1.3c1.4,0.4,2.9,1,2.9,2.7v0c0,2-1.5,2.9-3.4,2.9C204.9,20.5,203.6,20.1,202.5,19.4z"/>
			<path class="st0" d="M212,17.7v-4.9h-0.4c-0.5,0-0.9-0.4-0.9-0.9c0-0.5,0.4-0.9,0.9-0.9h0.4V9.4c0-0.6,0.5-1.1,1.1-1.1
				c0.6,0,1.1,0.5,1.1,1.1V11h1.7c0.5,0,0.9,0.4,0.9,0.9c0,0.5-0.4,0.9-0.9,0.9h-1.7v4.6c0,0.8,0.4,1.2,1.1,1.2
				c0.2,0,0.5-0.1,0.5-0.1c0.5,0,0.9,0.4,0.9,0.9c0,0.4-0.3,0.7-0.6,0.8c-0.5,0.2-0.9,0.2-1.5,0.2C213.1,20.5,212,19.8,212,17.7z"/>
			<path class="st0" d="M218.8,12c0-0.6,0.5-1.1,1.1-1.1c0.6,0,1.1,0.5,1.1,1.1v0.9c0.5-1.2,1.4-2,2.3-2c0.7,0,1.1,0.4,1.1,1.1
				c0,0.6-0.4,0.9-0.8,1c-1.5,0.3-2.6,1.4-2.6,3.6v2.7c0,0.6-0.5,1.1-1.1,1.1c-0.6,0-1.1-0.5-1.1-1.1V12z"/>
			<path class="st0" d="M226,8.5c0-0.6,0.5-1,1.2-1c0.7,0,1.2,0.4,1.2,1v0.1c0,0.6-0.5,1.1-1.2,1.1c-0.7,0-1.2-0.4-1.2-1.1V8.5z
				 M226.1,12c0-0.6,0.5-1.1,1.1-1.1c0.6,0,1.1,0.5,1.1,1.1v7.4c0,0.6-0.5,1.1-1.1,1.1c-0.6,0-1.1-0.5-1.1-1.1V12z"/>
			<path class="st0" d="M235.3,20.5c-2.7,0-4.8-2-4.8-4.8v0c0-2.7,1.9-4.8,4.5-4.8c3,0,4.4,2.4,4.4,4.6c0,0.6-0.5,1-1,1h-5.8
				c0.2,1.5,1.3,2.4,2.7,2.4c0.9,0,1.6-0.3,2.2-0.8c0.2-0.1,0.3-0.2,0.5-0.2c0.5,0,0.8,0.4,0.8,0.9c0,0.3-0.1,0.5-0.3,0.7
				C237.8,20,236.8,20.5,235.3,20.5z M237.4,15c-0.1-1.4-0.9-2.4-2.4-2.4c-1.3,0-2.2,1-2.4,2.4H237.4z"/>
			<path class="st0" d="M241.3,19.4c-0.2-0.1-0.4-0.4-0.4-0.7c0-0.5,0.4-0.9,0.9-0.9c0.2,0,0.3,0.1,0.5,0.1c0.9,0.6,1.8,0.9,2.7,0.9
				c0.9,0,1.4-0.4,1.4-1v0c0-0.7-1-1-2.1-1.3c-1.4-0.4-2.9-0.9-2.9-2.7v0c0-1.8,1.5-2.8,3.3-2.8c1,0,2,0.3,2.9,0.8
				c0.3,0.2,0.5,0.4,0.5,0.8c0,0.5-0.4,0.9-0.9,0.9c-0.2,0-0.3,0-0.4-0.1c-0.8-0.4-1.5-0.6-2.2-0.6c-0.8,0-1.3,0.4-1.3,0.9v0
				c0,0.7,1,1,2.1,1.3c1.4,0.4,2.9,1,2.9,2.7v0c0,2-1.5,2.9-3.4,2.9C243.7,20.5,242.4,20.1,241.3,19.4z"/>
		</g>
		<g>
			<path class="st0" d="M166.9,27.1c0-0.6,0.5-1.1,1.1-1.1c0.6,0,1.1,0.5,1.1,1.1v10.3c0,0.6-0.5,1.1-1.1,1.1
				c-0.6,0-1.1-0.5-1.1-1.1V27.1z"/>
			<path class="st0" d="M172.1,30.1c0-0.6,0.5-1.1,1.1-1.1c0.6,0,1.1,0.5,1.1,1.1v0.5c0.6-0.9,1.5-1.6,2.9-1.6
				c2.1,0,3.3,1.4,3.3,3.6v5c0,0.6-0.5,1.1-1.1,1.1s-1.1-0.5-1.1-1.1v-4.3c0-1.4-0.7-2.3-2-2.3c-1.2,0-2.1,0.9-2.1,2.3v4.3
				c0,0.6-0.5,1.1-1.1,1.1c-0.6,0-1.1-0.5-1.1-1.1V30.1z"/>
			<path class="st0" d="M183.5,35.9V31h-0.4c-0.5,0-0.9-0.4-0.9-0.9c0-0.5,0.4-0.9,0.9-0.9h0.4v-1.6c0-0.6,0.5-1.1,1.1-1.1
				c0.6,0,1.1,0.5,1.1,1.1v1.6h1.7c0.5,0,0.9,0.4,0.9,0.9c0,0.5-0.4,0.9-0.9,0.9h-1.7v4.6c0,0.8,0.4,1.2,1.1,1.2
				c0.2,0,0.5-0.1,0.5-0.1c0.5,0,0.9,0.4,0.9,0.9c0,0.4-0.3,0.7-0.6,0.8c-0.5,0.2-0.9,0.2-1.5,0.2C184.6,38.6,183.5,37.9,183.5,35.9
				z"/>
			<path class="st0" d="M194.2,38.6c-2.7,0-4.8-2-4.8-4.8v0c0-2.7,1.9-4.8,4.5-4.8c3,0,4.4,2.4,4.4,4.6c0,0.6-0.5,1-1,1h-5.8
				c0.2,1.5,1.3,2.4,2.7,2.4c0.9,0,1.6-0.3,2.2-0.8c0.2-0.1,0.3-0.2,0.5-0.2c0.5,0,0.8,0.4,0.8,0.9c0,0.3-0.1,0.5-0.3,0.7
				C196.7,38.2,195.7,38.6,194.2,38.6z M196.4,33.1c-0.1-1.4-0.9-2.4-2.4-2.4c-1.3,0-2.2,1-2.4,2.4H196.4z"/>
			<path class="st0" d="M200.6,30.1c0-0.6,0.5-1.1,1.1-1.1s1.1,0.5,1.1,1.1v0.9c0.5-1.2,1.4-2,2.3-2c0.7,0,1.1,0.4,1.1,1.1
				c0,0.6-0.4,0.9-0.8,1c-1.5,0.3-2.6,1.4-2.6,3.6v2.7c0,0.6-0.5,1.1-1.1,1.1c-0.6,0-1.1-0.5-1.1-1.1V30.1z"/>
			<path class="st0" d="M207.9,30.1c0-0.6,0.5-1.1,1.1-1.1c0.6,0,1.1,0.5,1.1,1.1v0.5c0.6-0.9,1.5-1.6,2.9-1.6
				c2.1,0,3.3,1.4,3.3,3.6v5c0,0.6-0.5,1.1-1.1,1.1c-0.6,0-1.1-0.5-1.1-1.1v-4.3c0-1.4-0.7-2.3-2-2.3c-1.2,0-2.1,0.9-2.1,2.3v4.3
				c0,0.6-0.5,1.1-1.1,1.1c-0.6,0-1.1-0.5-1.1-1.1V30.1z"/>
			<path class="st0" d="M218.2,35.8L218.2,35.8c0-2,1.6-3,3.8-3c1,0,1.8,0.2,2.5,0.4v-0.2c0-1.3-0.8-2-2.3-2c-0.8,0-1.5,0.1-2.1,0.4
				c-0.1,0-0.2,0.1-0.3,0.1c-0.5,0-0.9-0.4-0.9-0.9c0-0.4,0.3-0.7,0.6-0.8c0.9-0.3,1.8-0.5,3-0.5c1.4,0,2.4,0.4,3.1,1
				c0.7,0.7,1,1.7,1,2.9v4.6c0,0.6-0.5,1-1,1c-0.6,0-1-0.4-1-0.9v-0.4c-0.6,0.8-1.6,1.4-3,1.4C219.7,38.6,218.2,37.6,218.2,35.8z
				 M224.5,35.1v-0.6c-0.5-0.2-1.3-0.4-2.1-0.4c-1.4,0-2.2,0.6-2.2,1.5v0c0,0.9,0.8,1.4,1.8,1.4C223.5,37.1,224.5,36.3,224.5,35.1z"
				/>
			<path class="st0" d="M229.5,35.9V31h-0.4c-0.5,0-0.9-0.4-0.9-0.9c0-0.5,0.4-0.9,0.9-0.9h0.4v-1.6c0-0.6,0.5-1.1,1.1-1.1
				c0.6,0,1.1,0.5,1.1,1.1v1.6h1.7c0.5,0,0.9,0.4,0.9,0.9c0,0.5-0.4,0.9-0.9,0.9h-1.7v4.6c0,0.8,0.4,1.2,1.1,1.2
				c0.2,0,0.5-0.1,0.5-0.1c0.5,0,0.9,0.4,0.9,0.9c0,0.4-0.3,0.7-0.6,0.8c-0.5,0.2-0.9,0.2-1.5,0.2C230.6,38.6,229.5,37.9,229.5,35.9
				z"/>
			<path class="st0" d="M236.2,26.6c0-0.6,0.5-1,1.2-1c0.7,0,1.2,0.4,1.2,1v0.1c0,0.6-0.5,1.1-1.2,1.1c-0.7,0-1.2-0.4-1.2-1.1V26.6z
				 M236.4,30.1c0-0.6,0.5-1.1,1.1-1.1c0.6,0,1.1,0.5,1.1,1.1v7.4c0,0.6-0.5,1.1-1.1,1.1c-0.6,0-1.1-0.5-1.1-1.1V30.1z"/>
			<path class="st0" d="M240.8,33.8L240.8,33.8c0-2.7,2.1-4.9,5-4.9s4.9,2.2,4.9,4.8v0c0,2.6-2.1,4.8-5,4.8
				C242.9,38.6,240.8,36.5,240.8,33.8z M248.5,33.8L248.5,33.8c0-1.7-1.2-3-2.8-3c-1.7,0-2.8,1.3-2.8,3v0c0,1.6,1.2,3,2.8,3
				C247.4,36.8,248.5,35.4,248.5,33.8z"/>
			<path class="st0" d="M252.8,30.1c0-0.6,0.5-1.1,1.1-1.1c0.6,0,1.1,0.5,1.1,1.1v0.5c0.6-0.9,1.5-1.6,2.9-1.6
				c2.1,0,3.3,1.4,3.3,3.6v5c0,0.6-0.5,1.1-1.1,1.1s-1.1-0.5-1.1-1.1v-4.3c0-1.4-0.7-2.3-2-2.3c-1.2,0-2.1,0.9-2.1,2.3v4.3
				c0,0.6-0.5,1.1-1.1,1.1c-0.6,0-1.1-0.5-1.1-1.1V30.1z"/>
			<path class="st0" d="M263.1,35.8L263.1,35.8c0-2,1.6-3,3.8-3c1,0,1.8,0.2,2.5,0.4v-0.2c0-1.3-0.8-2-2.3-2c-0.8,0-1.5,0.1-2.1,0.4
				c-0.1,0-0.2,0.1-0.3,0.1c-0.5,0-0.9-0.4-0.9-0.9c0-0.4,0.3-0.7,0.6-0.8c0.9-0.3,1.8-0.5,3-0.5c1.4,0,2.4,0.4,3.1,1
				c0.7,0.7,1,1.7,1,2.9v4.6c0,0.6-0.5,1-1,1c-0.6,0-1-0.4-1-0.9v-0.4c-0.6,0.8-1.6,1.4-3,1.4C264.7,38.6,263.1,37.6,263.1,35.8z
				 M269.5,35.1v-0.6c-0.5-0.2-1.3-0.4-2.1-0.4c-1.4,0-2.2,0.6-2.2,1.5v0c0,0.9,0.8,1.4,1.8,1.4C268.4,37.1,269.5,36.3,269.5,35.1z"
				/>
			<path class="st0" d="M274.2,26.6c0-0.6,0.5-1.1,1.1-1.1c0.6,0,1.1,0.5,1.1,1.1v10.9c0,0.6-0.5,1.1-1.1,1.1
				c-0.6,0-1.1-0.5-1.1-1.1V26.6z"/>
		</g>
	</g>
	<g>
		<path class="st0" d="M36.2,7.9h6.7v12h12.3v-12h6.7v30.3h-6.7V26.1H42.9v12.2h-6.7V7.9z"/>
		<path class="st0" d="M67.8,23.1L67.8,23.1c0-8.7,6.8-15.8,16.2-15.8S100,14.3,100,23v0.1c0,8.6-6.8,15.7-16.2,15.7
			C74.5,38.8,67.8,31.8,67.8,23.1z M93.1,23.1L93.1,23.1c0-5.3-3.8-9.6-9.2-9.6c-5.4,0-9.1,4.2-9.1,9.5v0.1c0,5.2,3.8,9.5,9.2,9.5
			C89.3,32.6,93.1,28.3,93.1,23.1z"/>
		<path class="st0" d="M106,7.9h12.4c7.2,0,11.6,4.3,11.6,10.5v0.1c0,7-5.5,10.7-12.3,10.7h-5.1v9.1H106V7.9z M117.9,23.2
			c3.3,0,5.3-2,5.3-4.6v-0.1c0-3-2.1-4.6-5.4-4.6h-5.2v9.3H117.9z"/>
		<path class="st0" d="M134.9,7.9h22.9v5.9h-16.3V20h14.3v5.9h-14.3v6.4H158v5.9h-23.1V7.9z"/>
	</g>
	<g>
		<path class="st1" d="M17.9,0c-2.6,2.3-7.1,7.8-6.8,14.3c0.3,6.2,2.9,9.4,2.9,9.4s4.5-2.6,6.5-9.7C21.9,8.8,20.2,3.6,17.9,0z"/>
		<path class="st1" d="M0.2,13.5c3.1,0.9,9,3.8,11.2,9.5c2.1,5.4,1.3,9.4,1.3,9.4s-4.9-0.6-9.3-6C0.2,22.6-0.4,17.5,0.2,13.5z"/>
		<path class="st1" d="M26.8,17.4c-3.2,1.2-9.2,5.1-11.3,11.2c-2,5.9-1.2,10-1.2,10s5.4-1.3,9.8-7.3C27.4,27,27.7,21.5,26.8,17.4z"
			/>
		<path class="st0" d="M15.6,46.1c-0.7,0.2-1.4-0.2-1.6-0.9c-0.7-2.7-1.2-5.4-1.4-8.2c-0.3-3.2-0.1-6.4,0.2-9.6
			c0.3-3.2,0.8-6.3,1.4-9.4c0.6-3.1,1.2-6.2,2.1-9.2c-0.5,3.1-0.9,6.2-1.2,9.3c-0.2,1.6-0.3,3.1-0.4,4.7l-0.2,2.3
			c0,0.8-0.1,1.6-0.1,2.3c-0.1,1.6,0,3.1,0,4.7c0.1,1.5,0.2,3.1,0.4,4.6c0.4,2.6,1,5.2,1.7,7.8C16.7,45.2,16.3,45.9,15.6,46.1
			L15.6,46.1z"/>
		<path class="st0" d="M14.2,43c-0.1-1.5-0.1-3.1,0.1-4.7c0.1-0.8,0.3-1.6,0.6-2.4c0.3-0.8,0.7-1.5,1.1-2.1c0.4-0.7,0.8-1.3,1.3-2
			c0.5-0.6,0.9-1.2,1.4-1.8c1-1.2,2-2.4,3.1-3.4c-1,1.2-1.7,2.5-2.5,3.8c-0.4,0.7-0.7,1.3-1.1,2c-0.2,0.3-0.4,0.6-0.6,1
			c-0.2,0.3-0.4,0.6-0.6,1c-0.7,1.3-1.2,2.6-1.4,4.1c-0.1,1.4,0,2.9,0.1,4.4L14.2,43z"/>
		<path class="st0" d="M12.7,37.9c-0.2-1.5-0.4-2.9-0.8-4.3c-0.4-1.4-0.8-2.8-1.4-4.2c-0.1-0.3-0.3-0.7-0.4-1
			c-0.2-0.3-0.3-0.7-0.4-1c-0.3-0.7-0.6-1.3-1-2c-0.7-1.3-1.6-2.5-2.6-3.7c1.1,1,2.2,2,3.2,3.2c0.5,0.6,0.9,1.2,1.4,1.9
			c0.2,0.3,0.4,0.7,0.5,1c0.2,0.3,0.3,0.7,0.5,1c0.6,1.4,1.2,2.8,1.6,4.3c0.4,1.5,0.7,3,1,4.5L12.7,37.9z"/>
	</g>
</g>
</svg>
