<svg class="site-logo" xmlns="http://www.w3.org/2000/svg" xmlns:xlink="http://www.w3.org/1999/xlink" width="139" height="40"
	 viewBox="0 0 136 40">
<g>
	<g>
		<g>
			<path style="fill:#7C5F55;" d="M37.76,12.51c0-1.09,0.86-1.95,1.98-1.95c1.09,0,1.95,0.86,1.95,1.95v7.5h10.66v-7.5
				c0-1.09,0.86-1.95,1.95-1.95c1.12,0,1.98,0.86,1.98,1.95v18.77c0,1.09-0.86,1.95-1.98,1.95c-1.09,0-1.95-0.86-1.95-1.95v-7.63
				H41.69v7.63c0,1.09-0.86,1.95-1.95,1.95c-1.12,0-1.98-0.86-1.98-1.95V12.51z"/>
		</g>
		<g>
			<path style="fill:#7C5F55;" d="M63.91,21.96v-0.06c0-6.29,4.85-11.56,11.72-11.56c6.86,0,11.65,5.2,11.65,11.49v0.06
				c0,6.29-4.85,11.56-11.72,11.56C68.7,33.45,63.91,28.25,63.91,21.96z M83.16,21.96v-0.06c0-4.34-3.16-7.95-7.6-7.95
				c-4.44,0-7.53,3.54-7.53,7.89v0.06c0,4.34,3.16,7.92,7.6,7.92C80.06,29.81,83.16,26.3,83.16,21.96z"/>
		</g>
		<g>
			<path style="fill:#7C5F55;" d="M94.91,12.7c0-1.12,0.86-1.98,1.98-1.98h6.83c5.24,0,8.49,2.97,8.49,7.47v0.06
				c0,5.01-4.02,7.63-8.94,7.63h-4.44v5.4c0,1.09-0.86,1.95-1.95,1.95c-1.12,0-1.98-0.86-1.98-1.95V12.7z M103.4,22.34
				c2.97,0,4.82-1.66,4.82-3.99v-0.06c0-2.62-1.88-3.99-4.82-3.99h-4.57v8.05H103.4z"/>
		</g>
		<g>
			<path style="fill:#7C5F55;" d="M119.11,31.09V12.7c0-1.12,0.86-1.98,1.98-1.98h12.99c0.96,0,1.76,0.8,1.76,1.76
				c0,0.99-0.8,1.76-1.76,1.76h-11.05v5.81h9.61c0.96,0,1.76,0.8,1.76,1.79c0,0.96-0.8,1.72-1.76,1.72h-9.61v6h11.21
				c0.96,0,1.76,0.8,1.76,1.76c0,0.99-0.8,1.76-1.76,1.76h-13.15C119.97,33.07,119.11,32.21,119.11,31.09z"/>
		</g>
	</g>
	<path style="fill:#7C5F55;" d="M33.03,2.93c0.03-0.07,0.06-0.15,0.09-0.22c0.01-0.02,0.01-0.04,0.02-0.05
		c0.02-0.06,0.03-0.13,0.05-0.19c0-0.01,0.01-0.03,0.01-0.04c0.01-0.08,0.02-0.16,0.03-0.24c0,0,0,0,0,0c0-0.08,0-0.15,0-0.23
		c0-0.02,0-0.04-0.01-0.06c-0.01-0.06-0.02-0.12-0.03-0.18c0-0.02-0.01-0.05-0.01-0.07c0-0.01,0-0.02-0.01-0.03
		c-0.02-0.07-0.04-0.13-0.06-0.2c0,0,0,0,0-0.01c-0.03-0.07-0.06-0.15-0.1-0.22c0-0.01-0.01-0.01-0.01-0.02
		c-0.01-0.01-0.01-0.02-0.02-0.03c-0.03-0.06-0.07-0.12-0.11-0.17c-0.01-0.01-0.01-0.02-0.02-0.03c-0.05-0.07-0.1-0.13-0.16-0.19
		c-0.01-0.01-0.01-0.01-0.02-0.02c-0.05-0.05-0.1-0.1-0.15-0.14c-0.01-0.01-0.03-0.02-0.04-0.04c-0.06-0.04-0.12-0.09-0.18-0.13
		c0,0-0.01-0.01-0.01-0.01c-0.07-0.04-0.14-0.08-0.21-0.11c-0.01-0.01-0.02-0.01-0.04-0.02c-0.06-0.03-0.13-0.05-0.2-0.07
		c-0.01,0-0.02-0.01-0.04-0.01c-0.16-0.04-0.32-0.07-0.49-0.07c-0.01,0-0.01,0-0.02,0c-0.1,0-0.2,0-0.3,0
		c-9.14,0-18.11,4-23.42,10.45C3.21,15.85,1.6,22.18,2.91,28.89c0.03,0.13,0.07,0.25,0.11,0.37C1.79,32,0.79,34.74,0.07,37.4
		c-0.28,1.05,0.33,2.12,1.38,2.41c0.17,0.05,0.35,0.07,0.52,0.07c0.86,0,1.65-0.57,1.89-1.45c0.68-2.5,1.63-5.09,2.79-7.68
		c0.4,0.03,0.79,0.05,1.17,0.05c0,0,0,0,0,0c9.74,0,14.97-9.61,20.02-18.91c1.61-2.95,3.27-6.01,5.06-8.74
		c0.01-0.01,0.01-0.02,0.01-0.03c0.04-0.06,0.08-0.13,0.11-0.2C33.03,2.94,33.03,2.93,33.03,2.93z M10.58,13.07
		c2.33-2.83,5.49-5.1,9.09-6.66c-2.54,2.14-5.05,4.76-7.47,7.79c-2.08,2.61-4,5.41-5.69,8.3C6.89,19.09,8.25,15.89,10.58,13.07z
		 M8.56,26.85c1.9-3.56,4.17-7.04,6.7-10.21c3.6-4.5,7.47-8.06,11.16-10.31c-0.69,1.23-1.37,2.47-2.03,3.69
		C19.84,18.4,15.53,26.33,8.56,26.85z"/>
	<path style="fill:#66FFAF;" d="M10.58,13.07c2.33-2.83,5.49-5.1,9.09-6.66c-2.54,2.14-5.05,4.76-7.47,7.79
		c-2.08,2.61-4,5.41-5.69,8.3C6.89,19.09,8.25,15.89,10.58,13.07z M8.56,26.85c1.9-3.56,4.17-7.04,6.7-10.21
		c3.6-4.5,7.47-8.06,11.16-10.31c-0.69,1.23-1.37,2.47-2.03,3.69C19.84,18.4,15.53,26.33,8.56,26.85z"/>
</g>
</svg>
