<svg class="site-logo" xmlns="http://www.w3.org/2000/svg" xmlns:xlink="http://www.w3.org/1999/xlink" width="139" height="40"
	 viewBox="0 0 136 40">
<g>
	<g>
		<path style="fill:#7C5F55;" d="M32.84,3.03c0.03-0.07,0.06-0.14,0.09-0.22c0.01-0.02,0.01-0.04,0.02-0.05
			c0.02-0.06,0.03-0.13,0.05-0.19c0-0.01,0.01-0.03,0.01-0.04c0.01-0.08,0.02-0.16,0.03-0.24c0,0,0,0,0,0c0-0.08,0-0.15,0-0.23
			c0-0.02,0-0.04-0.01-0.06C33,1.93,32.99,1.87,32.98,1.81c0-0.02-0.01-0.05-0.01-0.07c0-0.01,0-0.02-0.01-0.03
			c-0.02-0.07-0.04-0.13-0.06-0.19c0,0,0,0,0-0.01c-0.03-0.07-0.06-0.15-0.1-0.21c0-0.01-0.01-0.01-0.01-0.02
			c-0.01-0.01-0.01-0.02-0.02-0.03c-0.03-0.06-0.07-0.12-0.11-0.17c-0.01-0.01-0.01-0.02-0.02-0.03c-0.05-0.07-0.1-0.13-0.15-0.19
			c-0.01-0.01-0.01-0.01-0.02-0.02c-0.05-0.05-0.1-0.1-0.15-0.14c-0.01-0.01-0.03-0.02-0.04-0.04c-0.06-0.04-0.12-0.09-0.18-0.12
			c0,0-0.01-0.01-0.01-0.01c-0.07-0.04-0.14-0.08-0.21-0.11c-0.01-0.01-0.02-0.01-0.04-0.02c-0.06-0.03-0.13-0.05-0.2-0.07
			c-0.01,0-0.02-0.01-0.04-0.01c-0.16-0.04-0.32-0.07-0.49-0.07c-0.01,0-0.01,0-0.02,0c-0.1,0-0.2,0-0.3,0
			c-9.08,0-18,3.98-23.28,10.39c-4.32,5.25-5.92,11.54-4.62,18.21C2.91,28.96,2.95,29.08,3,29.2c-1.22,2.73-2.22,5.45-2.93,8.1
			c-0.28,1.04,0.33,2.11,1.37,2.39c0.17,0.05,0.34,0.07,0.51,0.07c0.86,0,1.64-0.57,1.88-1.44c0.68-2.49,1.62-5.06,2.77-7.63
			c0.39,0.03,0.78,0.05,1.17,0.05c0,0,0,0,0,0c9.68,0,14.88-9.55,19.91-18.79c1.6-2.94,3.25-5.97,5.03-8.69
			c0.01-0.01,0.01-0.02,0.01-0.03c0.04-0.06,0.08-0.13,0.11-0.19C32.83,3.04,32.83,3.03,32.84,3.03z M10.52,13.11
			c2.31-2.81,5.46-5.07,9.03-6.62c-2.52,2.13-5.02,4.73-7.43,7.74c-2.07,2.59-3.97,5.38-5.66,8.25
			C6.85,19.09,8.21,15.92,10.52,13.11z M8.51,26.81c1.89-3.54,4.14-6.99,6.66-10.15c3.57-4.48,7.43-8.01,11.1-10.25
			c-0.69,1.22-1.36,2.45-2.02,3.67C19.72,18.41,15.44,26.29,8.51,26.81z"/>
		<path style="fill:#66FFAF;" d="M10.52,13.11c2.31-2.81,5.46-5.07,9.03-6.62c-2.52,2.13-5.02,4.73-7.43,7.74
			c-2.07,2.59-3.97,5.38-5.66,8.25C6.85,19.09,8.21,15.92,10.52,13.11z M8.51,26.81c1.89-3.54,4.14-6.99,6.66-10.15
			c3.57-4.48,7.43-8.01,11.1-10.25c-0.69,1.22-1.36,2.45-2.02,3.67C19.72,18.41,15.44,26.29,8.51,26.81z"/>
	</g>
	<g>
		<g>
			<g>
				<path style="fill:#7C5F55;" d="M38.34,3.22c0-1.08,0.86-1.94,1.97-1.94c1.08,0,1.94,0.86,1.94,1.94v7.46h10.6V3.22
					c0-1.08,0.86-1.94,1.94-1.94c1.11,0,1.97,0.86,1.97,1.94v18.66c0,1.08-0.86,1.94-1.97,1.94c-1.08,0-1.94-0.86-1.94-1.94V14.3
					h-10.6v7.59c0,1.08-0.86,1.94-1.94,1.94c-1.11,0-1.97-0.86-1.97-1.94V3.22z"/>
			</g>
			<g>
				<path style="fill:#7C5F55;" d="M64.34,12.62v-0.06c0-6.25,4.82-11.49,11.65-11.49c6.82,0,11.58,5.17,11.58,11.43v0.06
					c0,6.25-4.82,11.49-11.65,11.49C69.1,24.04,64.34,18.87,64.34,12.62z M83.47,12.62v-0.06c0-4.32-3.14-7.9-7.55-7.9
					c-4.41,0-7.49,3.52-7.49,7.84v0.06c0,4.32,3.14,7.87,7.55,7.87S83.47,16.93,83.47,12.62z"/>
			</g>
			<g>
				<path style="fill:#7C5F55;" d="M95.15,3.41c0-1.11,0.86-1.97,1.97-1.97h6.79c5.2,0,8.44,2.95,8.44,7.43v0.06
					c0,4.98-4,7.59-8.89,7.59h-4.41v5.36c0,1.08-0.86,1.94-1.94,1.94c-1.11,0-1.97-0.86-1.97-1.94V3.41z M103.6,13
					c2.95,0,4.79-1.65,4.79-3.97V8.97c0-2.6-1.87-3.97-4.79-3.97h-4.54v8H103.6z"/>
			</g>
			<g>
				<path style="fill:#7C5F55;" d="M119.21,21.69V3.41c0-1.11,0.86-1.97,1.97-1.97h12.92c0.95,0,1.75,0.79,1.75,1.75
					c0,0.98-0.79,1.75-1.75,1.75h-10.98v5.78h9.55c0.95,0,1.75,0.79,1.75,1.78c0,0.95-0.79,1.71-1.75,1.71h-9.55v5.97h11.14
					c0.95,0,1.75,0.79,1.75,1.75c0,0.98-0.79,1.75-1.75,1.75h-13.08C120.07,23.66,119.21,22.8,119.21,21.69z"/>
			</g>
		</g>
		<g>
			<path style="fill:#7C5F55;" d="M38.34,30.51c0-0.44,0.35-0.8,0.8-0.8h0.17c0.35,0,0.58,0.18,0.73,0.43l2.73,4.28l2.74-4.29
				c0.17-0.27,0.4-0.41,0.72-0.41h0.17c0.45,0,0.8,0.36,0.8,0.8v7.55c0,0.44-0.35,0.79-0.8,0.79c-0.42,0-0.79-0.36-0.79-0.79v-5.41
				l-2.2,3.31c-0.17,0.26-0.37,0.41-0.67,0.41c-0.28,0-0.49-0.15-0.66-0.41l-2.19-3.28v5.4c0,0.44-0.35,0.77-0.79,0.77
				s-0.77-0.33-0.77-0.77V30.51z"/>
			<path style="fill:#7C5F55;" d="M50.28,30.15c0-0.46,0.39-0.76,0.89-0.76s0.89,0.3,0.89,0.76v0.08c0,0.46-0.39,0.77-0.89,0.77
				s-0.89-0.31-0.89-0.77V30.15z M50.39,32.69c0-0.44,0.33-0.79,0.77-0.79s0.79,0.35,0.79,0.79v5.38c0,0.44-0.35,0.77-0.79,0.77
				c-0.43,0-0.77-0.33-0.77-0.77V32.69z"/>
			<path style="fill:#7C5F55;" d="M54.95,32.69c0-0.44,0.33-0.79,0.77-0.79c0.44,0,0.79,0.35,0.79,0.79v0.33
				c0.44-0.63,1.07-1.18,2.12-1.18c1.53,0,2.42,1.03,2.42,2.6v3.63c0,0.44-0.33,0.77-0.77,0.77c-0.44,0-0.79-0.33-0.79-0.77v-3.16
				c0-1.06-0.53-1.66-1.46-1.66c-0.9,0-1.53,0.63-1.53,1.69v3.13c0,0.44-0.35,0.77-0.79,0.77c-0.42,0-0.77-0.33-0.77-0.77V32.69z"/>
			<path style="fill:#7C5F55;" d="M63.87,30.15c0-0.46,0.39-0.76,0.89-0.76s0.89,0.3,0.89,0.76v0.08c0,0.46-0.39,0.77-0.89,0.77
				s-0.89-0.31-0.89-0.77V30.15z M63.99,32.69c0-0.44,0.33-0.79,0.77-0.79s0.79,0.35,0.79,0.79v5.38c0,0.44-0.35,0.77-0.79,0.77
				c-0.43,0-0.77-0.33-0.77-0.77V32.69z"/>
			<path style="fill:#7C5F55;" d="M68.29,38.1c-0.17-0.09-0.3-0.28-0.3-0.54c0-0.35,0.27-0.63,0.63-0.63c0.13,0,0.24,0.04,0.33,0.09
				c0.66,0.44,1.34,0.66,1.96,0.66c0.67,0,1.06-0.28,1.06-0.73v-0.03c0-0.53-0.72-0.71-1.52-0.95c-1-0.28-2.12-0.7-2.12-2v-0.03
				c0-1.29,1.07-2.07,2.42-2.07c0.72,0,1.48,0.21,2.14,0.55c0.22,0.12,0.37,0.32,0.37,0.59c0,0.36-0.28,0.63-0.64,0.63
				c-0.13,0-0.21-0.03-0.31-0.08c-0.55-0.28-1.12-0.46-1.6-0.46c-0.61,0-0.95,0.28-0.95,0.67v0.03c0,0.5,0.73,0.71,1.53,0.97
				c0.99,0.31,2.11,0.76,2.11,1.98v0.03c0,1.43-1.11,2.14-2.52,2.14C70.02,38.91,69.08,38.64,68.29,38.1z"/>
			<path style="fill:#7C5F55;" d="M76.16,36.9v-3.58H75.9c-0.37,0-0.67-0.3-0.67-0.67c0-0.37,0.3-0.67,0.67-0.67h0.26v-1.16
				c0-0.43,0.35-0.77,0.79-0.77c0.43,0,0.77,0.35,0.77,0.77v1.16h1.22c0.37,0,0.68,0.3,0.68,0.67c0,0.37-0.31,0.67-0.68,0.67h-1.22
				v3.34c0,0.61,0.31,0.85,0.84,0.85c0.18,0,0.33-0.04,0.39-0.04c0.35,0,0.66,0.28,0.66,0.64c0,0.28-0.19,0.52-0.41,0.61
				c-0.33,0.12-0.66,0.18-1.07,0.18C76.97,38.9,76.16,38.4,76.16,36.9z"/>
			<path style="fill:#7C5F55;" d="M82.09,32.69c0-0.44,0.33-0.79,0.77-0.79s0.79,0.35,0.79,0.79v0.7c0.36-0.85,1.03-1.49,1.71-1.49
				c0.49,0,0.77,0.32,0.77,0.77c0,0.41-0.27,0.68-0.62,0.75c-1.11,0.19-1.87,1.04-1.87,2.65v2.01c0,0.42-0.35,0.77-0.79,0.77
				c-0.42,0-0.77-0.33-0.77-0.77V32.69z"/>
			<path style="fill:#7C5F55;" d="M88.35,30.15c0-0.46,0.39-0.76,0.89-0.76c0.5,0,0.89,0.3,0.89,0.76v0.08
				c0,0.46-0.39,0.77-0.89,0.77c-0.5,0-0.89-0.31-0.89-0.77V30.15z M88.47,32.69c0-0.44,0.33-0.79,0.77-0.79
				c0.44,0,0.79,0.35,0.79,0.79v5.38c0,0.44-0.35,0.77-0.79,0.77c-0.43,0-0.77-0.33-0.77-0.77V32.69z"/>
			<path style="fill:#7C5F55;" d="M96.14,38.94c-1.97,0-3.49-1.43-3.49-3.53v-0.03c0-1.94,1.38-3.54,3.32-3.54
				c2.16,0,3.23,1.78,3.23,3.35c0,0.44-0.33,0.75-0.73,0.75h-4.26c0.17,1.11,0.95,1.73,1.96,1.73c0.66,0,1.17-0.23,1.61-0.59
				c0.12-0.09,0.22-0.14,0.4-0.14c0.35,0,0.62,0.27,0.62,0.63c0,0.19-0.09,0.36-0.21,0.48C97.97,38.59,97.2,38.94,96.14,38.94z
				 M97.69,34.91c-0.1-1-0.7-1.79-1.73-1.79c-0.95,0-1.62,0.73-1.76,1.79H97.69z"/>
			<path style="fill:#7C5F55;" d="M101.51,38.1c-0.17-0.09-0.3-0.28-0.3-0.54c0-0.35,0.27-0.63,0.63-0.63
				c0.13,0,0.24,0.04,0.33,0.09c0.66,0.44,1.34,0.66,1.96,0.66c0.67,0,1.06-0.28,1.06-0.73v-0.03c0-0.53-0.72-0.71-1.52-0.95
				c-1-0.28-2.12-0.7-2.12-2v-0.03c0-1.29,1.07-2.07,2.42-2.07c0.72,0,1.48,0.21,2.14,0.55c0.22,0.12,0.37,0.32,0.37,0.59
				c0,0.36-0.28,0.63-0.64,0.63c-0.13,0-0.21-0.03-0.31-0.08c-0.55-0.28-1.12-0.46-1.6-0.46c-0.61,0-0.95,0.28-0.95,0.67v0.03
				c0,0.5,0.73,0.71,1.53,0.97c0.99,0.31,2.11,0.76,2.11,1.98v0.03c0,1.43-1.11,2.14-2.52,2.14
				C103.24,38.91,102.3,38.64,101.51,38.1z"/>
			<path style="fill:#7C5F55;" d="M114.28,30.49c0-0.44,0.35-0.79,0.8-0.79c0.44,0,0.79,0.35,0.79,0.79v7.57
				c0,0.44-0.35,0.79-0.79,0.79c-0.45,0-0.8-0.35-0.8-0.79V30.49z"/>
			<path style="fill:#7C5F55;" d="M119.06,32.69c0-0.44,0.33-0.79,0.77-0.79s0.79,0.35,0.79,0.79v0.33
				c0.44-0.63,1.07-1.18,2.12-1.18c1.53,0,2.42,1.03,2.42,2.6v3.63c0,0.44-0.33,0.77-0.77,0.77s-0.79-0.33-0.79-0.77v-3.16
				c0-1.06-0.53-1.66-1.46-1.66c-0.9,0-1.53,0.63-1.53,1.69v3.13c0,0.44-0.35,0.77-0.79,0.77c-0.42,0-0.77-0.33-0.77-0.77V32.69z"/>
			<path style="fill:#7C5F55;" d="M128.33,36.9v-3.58h-0.26c-0.37,0-0.67-0.3-0.67-0.67c0-0.37,0.3-0.67,0.67-0.67h0.26v-1.16
				c0-0.43,0.35-0.77,0.79-0.77c0.43,0,0.77,0.35,0.77,0.77v1.16h1.22c0.37,0,0.68,0.3,0.68,0.67c0,0.37-0.31,0.67-0.68,0.67h-1.22
				v3.34c0,0.61,0.31,0.85,0.84,0.85c0.18,0,0.33-0.04,0.39-0.04c0.35,0,0.66,0.28,0.66,0.64c0,0.28-0.19,0.52-0.41,0.61
				c-0.33,0.12-0.66,0.18-1.07,0.18C129.14,38.9,128.33,38.4,128.33,36.9z"/>
			<path style="fill:#7C5F55;" d="M134.36,30.09c0-0.42,0.33-0.77,0.77-0.77c0.44,0,0.79,0.35,0.79,0.77v7.98
				c0,0.44-0.35,0.77-0.79,0.77c-0.43,0-0.77-0.33-0.77-0.77V30.09z"/>
		</g>
	</g>
</g>
</svg>
