<svg class="site-logo" xmlns="http://www.w3.org/2000/svg" xmlns:xlink="http://www.w3.org/1999/xlink"
	 viewBox="0 0 135.9 47.1" width="136" height="48">
<style type="text/css">
	.st0{fill:#7C5F55;}
	.st1{fill:#1AC473;}
</style>
<g>
	<g>
		<path class="st0" d="M35.2,37.7c0-0.3,0.2-0.6,0.6-0.6h0.1c0.2,0,0.4,0.1,0.5,0.3l1.9,3l1.9-3c0.1-0.2,0.3-0.3,0.5-0.3h0.1
			c0.3,0,0.6,0.2,0.6,0.6V43c0,0.3-0.2,0.5-0.6,0.5c-0.3,0-0.5-0.2-0.5-0.5v-3.7l-1.5,2.3c-0.1,0.2-0.3,0.3-0.5,0.3
			c-0.2,0-0.3-0.1-0.5-0.3l-1.5-2.3V43c0,0.3-0.2,0.5-0.5,0.5c-0.3,0-0.5-0.2-0.5-0.5V37.7z"/>
		<path class="st0" d="M42.8,37.5c0-0.3,0.3-0.5,0.6-0.5c0.3,0,0.6,0.2,0.6,0.5v0.1c0,0.3-0.3,0.5-0.6,0.5
			C43.1,38.1,42.8,37.9,42.8,37.5L42.8,37.5z M42.9,39.2c0-0.3,0.2-0.5,0.5-0.5c0.3,0,0.5,0.2,0.5,0.5V43c0,0.3-0.2,0.5-0.5,0.5
			c-0.3,0-0.5-0.2-0.5-0.5V39.2z"/>
		<path class="st0" d="M45.4,39.2c0-0.3,0.2-0.5,0.5-0.5c0.3,0,0.5,0.2,0.5,0.5v0.2c0.3-0.4,0.7-0.8,1.5-0.8c1.1,0,1.7,0.7,1.7,1.8
			V43c0,0.3-0.2,0.5-0.5,0.5c-0.3,0-0.5-0.2-0.5-0.5v-2.2c0-0.7-0.4-1.1-1-1.1c-0.6,0-1.1,0.4-1.1,1.2V43c0,0.3-0.2,0.5-0.5,0.5
			c-0.3,0-0.5-0.2-0.5-0.5V39.2z"/>
		<path class="st0" d="M50.9,37.5c0-0.3,0.3-0.5,0.6-0.5c0.3,0,0.6,0.2,0.6,0.5v0.1c0,0.3-0.3,0.5-0.6,0.5
			C51.1,38.1,50.9,37.9,50.9,37.5L50.9,37.5z M50.9,39.2c0-0.3,0.2-0.5,0.5-0.5c0.3,0,0.5,0.2,0.5,0.5V43c0,0.3-0.2,0.5-0.5,0.5
			c-0.3,0-0.5-0.2-0.5-0.5V39.2z"/>
		<path class="st0" d="M53.3,43c-0.1-0.1-0.2-0.2-0.2-0.4c0-0.2,0.2-0.4,0.4-0.4c0.1,0,0.2,0,0.2,0.1c0.5,0.3,0.9,0.5,1.4,0.5
			c0.5,0,0.7-0.2,0.7-0.5v0c0-0.4-0.5-0.5-1.1-0.7c-0.7-0.2-1.5-0.5-1.5-1.4v0c0-0.9,0.7-1.4,1.7-1.4c0.5,0,1,0.1,1.5,0.4
			c0.2,0.1,0.3,0.2,0.3,0.4c0,0.2-0.2,0.4-0.4,0.4c-0.1,0-0.1,0-0.2-0.1c-0.4-0.2-0.8-0.3-1.1-0.3c-0.4,0-0.7,0.2-0.7,0.5v0
			c0,0.3,0.5,0.5,1.1,0.7c0.7,0.2,1.5,0.5,1.5,1.4v0c0,1-0.8,1.5-1.7,1.5C54.5,43.5,53.8,43.4,53.3,43z"/>
		<path class="st0" d="M58,42.2v-2.5h-0.2c-0.3,0-0.5-0.2-0.5-0.5c0-0.3,0.2-0.5,0.5-0.5H58v-0.8c0-0.3,0.2-0.5,0.5-0.5
			c0.3,0,0.5,0.2,0.5,0.5v0.8H60c0.3,0,0.5,0.2,0.5,0.5c0,0.3-0.2,0.5-0.5,0.5h-0.8V42c0,0.4,0.2,0.6,0.6,0.6c0.1,0,0.2,0,0.3,0
			c0.2,0,0.5,0.2,0.5,0.4c0,0.2-0.1,0.4-0.3,0.4c-0.2,0.1-0.5,0.1-0.7,0.1C58.6,43.5,58,43.2,58,42.2z"/>
		<path class="st0" d="M61.5,39.2c0-0.3,0.2-0.5,0.5-0.5c0.3,0,0.5,0.2,0.5,0.5v0.5c0.2-0.6,0.7-1,1.2-1c0.3,0,0.5,0.2,0.5,0.5
			c0,0.3-0.2,0.5-0.4,0.5c-0.8,0.1-1.3,0.7-1.3,1.8V43c0,0.3-0.2,0.5-0.5,0.5c-0.3,0-0.5-0.2-0.5-0.5V39.2z"/>
		<path class="st0" d="M65.1,37.5c0-0.3,0.3-0.5,0.6-0.5c0.3,0,0.6,0.2,0.6,0.5v0.1c0,0.3-0.3,0.5-0.6,0.5
			C65.4,38.1,65.1,37.9,65.1,37.5L65.1,37.5z M65.2,39.2c0-0.3,0.2-0.5,0.5-0.5c0.3,0,0.5,0.2,0.5,0.5V43c0,0.3-0.2,0.5-0.5,0.5
			c-0.3,0-0.5-0.2-0.5-0.5V39.2z"/>
		<path class="st0" d="M69.9,43.6c-1.4,0-2.4-1-2.4-2.4v0c0-1.3,1-2.5,2.3-2.5c1.5,0,2.2,1.2,2.2,2.3c0,0.3-0.2,0.5-0.5,0.5h-2.9
			c0.1,0.8,0.7,1.2,1.4,1.2c0.5,0,0.8-0.2,1.1-0.4c0.1-0.1,0.2-0.1,0.3-0.1c0.2,0,0.4,0.2,0.4,0.4c0,0.1-0.1,0.2-0.1,0.3
			C71.1,43.3,70.6,43.6,69.9,43.6z M70.9,40.8c-0.1-0.7-0.5-1.2-1.2-1.2c-0.7,0-1.1,0.5-1.2,1.2H70.9z"/>
		<path class="st0" d="M72.9,43c-0.1-0.1-0.2-0.2-0.2-0.4c0-0.2,0.2-0.4,0.4-0.4c0.1,0,0.2,0,0.2,0.1c0.5,0.3,0.9,0.5,1.4,0.5
			c0.5,0,0.7-0.2,0.7-0.5v0c0-0.4-0.5-0.5-1.1-0.7c-0.7-0.2-1.5-0.5-1.5-1.4v0c0-0.9,0.7-1.4,1.7-1.4c0.5,0,1,0.1,1.5,0.4
			c0.2,0.1,0.3,0.2,0.3,0.4c0,0.2-0.2,0.4-0.4,0.4c-0.1,0-0.1,0-0.2-0.1c-0.4-0.2-0.8-0.3-1.1-0.3c-0.4,0-0.7,0.2-0.7,0.5v0
			c0,0.3,0.5,0.5,1.1,0.7c0.7,0.2,1.5,0.5,1.5,1.4v0c0,1-0.8,1.5-1.7,1.5C74.1,43.5,73.4,43.4,72.9,43z"/>
		<path class="st0" d="M80.4,37.7c0-0.3,0.2-0.5,0.6-0.5c0.3,0,0.5,0.2,0.5,0.5V43c0,0.3-0.2,0.5-0.5,0.5c-0.3,0-0.6-0.2-0.6-0.5
			V37.7z"/>
		<path class="st0" d="M83,39.2c0-0.3,0.2-0.5,0.5-0.5s0.5,0.2,0.5,0.5v0.2c0.3-0.4,0.7-0.8,1.5-0.8c1.1,0,1.7,0.7,1.7,1.8V43
			c0,0.3-0.2,0.5-0.5,0.5c-0.3,0-0.5-0.2-0.5-0.5v-2.2c0-0.7-0.4-1.1-1-1.1c-0.6,0-1.1,0.4-1.1,1.2V43c0,0.3-0.2,0.5-0.5,0.5
			c-0.3,0-0.5-0.2-0.5-0.5V39.2z"/>
		<path class="st0" d="M88.8,42.2v-2.5h-0.2c-0.3,0-0.5-0.2-0.5-0.5c0-0.3,0.2-0.5,0.5-0.5h0.2v-0.8c0-0.3,0.2-0.5,0.5-0.5
			c0.3,0,0.5,0.2,0.5,0.5v0.8h0.8c0.3,0,0.5,0.2,0.5,0.5c0,0.3-0.2,0.5-0.5,0.5h-0.8V42c0,0.4,0.2,0.6,0.6,0.6c0.1,0,0.2,0,0.3,0
			c0.2,0,0.5,0.2,0.5,0.4c0,0.2-0.1,0.4-0.3,0.4c-0.2,0.1-0.5,0.1-0.7,0.1C89.4,43.5,88.8,43.2,88.8,42.2z"/>
		<path class="st0" d="M94.3,43.6c-1.4,0-2.4-1-2.4-2.4v0c0-1.3,1-2.5,2.3-2.5c1.5,0,2.2,1.2,2.2,2.3c0,0.3-0.2,0.5-0.5,0.5h-2.9
			c0.1,0.8,0.7,1.2,1.4,1.2c0.5,0,0.8-0.2,1.1-0.4c0.1-0.1,0.2-0.1,0.3-0.1c0.2,0,0.4,0.2,0.4,0.4c0,0.1-0.1,0.2-0.1,0.3
			C95.5,43.3,95,43.6,94.3,43.6z M95.3,40.8c-0.1-0.7-0.5-1.2-1.2-1.2c-0.7,0-1.1,0.5-1.2,1.2H95.3z"/>
		<path class="st0" d="M97.5,39.2c0-0.3,0.2-0.5,0.5-0.5s0.5,0.2,0.5,0.5v0.5c0.2-0.6,0.7-1,1.2-1c0.3,0,0.5,0.2,0.5,0.5
			c0,0.3-0.2,0.5-0.4,0.5c-0.8,0.1-1.3,0.7-1.3,1.8V43c0,0.3-0.2,0.5-0.5,0.5c-0.3,0-0.5-0.2-0.5-0.5V39.2z"/>
		<path class="st0" d="M101.2,39.2c0-0.3,0.2-0.5,0.5-0.5c0.3,0,0.5,0.2,0.5,0.5v0.2c0.3-0.4,0.7-0.8,1.5-0.8c1.1,0,1.7,0.7,1.7,1.8
			V43c0,0.3-0.2,0.5-0.5,0.5s-0.5-0.2-0.5-0.5v-2.2c0-0.7-0.4-1.1-1-1.1c-0.6,0-1.1,0.4-1.1,1.2V43c0,0.3-0.2,0.5-0.5,0.5
			c-0.3,0-0.5-0.2-0.5-0.5V39.2z"/>
		<path class="st0" d="M106.4,42.1L106.4,42.1c0-1,0.8-1.5,1.9-1.5c0.5,0,0.9,0.1,1.3,0.2v-0.1c0-0.7-0.4-1-1.2-1
			c-0.4,0-0.7,0.1-1,0.2c-0.1,0-0.1,0-0.2,0c-0.2,0-0.5-0.2-0.5-0.4c0-0.2,0.1-0.4,0.3-0.4c0.4-0.2,0.9-0.3,1.5-0.3
			c0.7,0,1.2,0.2,1.6,0.5c0.3,0.3,0.5,0.8,0.5,1.5V43c0,0.3-0.2,0.5-0.5,0.5c-0.3,0-0.5-0.2-0.5-0.5v-0.2c-0.3,0.4-0.8,0.7-1.5,0.7
			C107.2,43.6,106.4,43,106.4,42.1z M109.6,41.8v-0.3c-0.3-0.1-0.6-0.2-1.1-0.2c-0.7,0-1.1,0.3-1.1,0.8v0c0,0.5,0.4,0.7,0.9,0.7
			C109.1,42.8,109.6,42.4,109.6,41.8z"/>
		<path class="st0" d="M112.1,42.2v-2.5h-0.2c-0.3,0-0.5-0.2-0.5-0.5c0-0.3,0.2-0.5,0.5-0.5h0.2v-0.8c0-0.3,0.2-0.5,0.5-0.5
			c0.3,0,0.5,0.2,0.5,0.5v0.8h0.8c0.3,0,0.5,0.2,0.5,0.5c0,0.3-0.2,0.5-0.5,0.5h-0.8V42c0,0.4,0.2,0.6,0.6,0.6c0.1,0,0.2,0,0.3,0
			c0.2,0,0.5,0.2,0.5,0.4c0,0.2-0.1,0.4-0.3,0.4c-0.2,0.1-0.5,0.1-0.7,0.1C112.7,43.5,112.1,43.2,112.1,42.2z"/>
		<path class="st0" d="M115.5,37.5c0-0.3,0.3-0.5,0.6-0.5c0.3,0,0.6,0.2,0.6,0.5v0.1c0,0.3-0.3,0.5-0.6,0.5
			C115.8,38.1,115.5,37.9,115.5,37.5L115.5,37.5z M115.6,39.2c0-0.3,0.2-0.5,0.5-0.5c0.3,0,0.5,0.2,0.5,0.5V43
			c0,0.3-0.2,0.5-0.5,0.5c-0.3,0-0.5-0.2-0.5-0.5V39.2z"/>
		<path class="st0" d="M117.8,41.1L117.8,41.1c0-1.4,1.1-2.5,2.5-2.5s2.5,1.1,2.5,2.4v0c0,1.3-1.1,2.5-2.5,2.5
			C118.9,43.6,117.8,42.5,117.8,41.1z M121.8,41.1L121.8,41.1c0-0.8-0.6-1.5-1.4-1.5c-0.9,0-1.4,0.7-1.4,1.5v0
			c0,0.8,0.6,1.5,1.4,1.5C121.2,42.6,121.8,41.9,121.8,41.1z"/>
		<path class="st0" d="M123.9,39.2c0-0.3,0.2-0.5,0.5-0.5s0.5,0.2,0.5,0.5v0.2c0.3-0.4,0.7-0.8,1.5-0.8c1.1,0,1.7,0.7,1.7,1.8V43
			c0,0.3-0.2,0.5-0.5,0.5s-0.5-0.2-0.5-0.5v-2.2c0-0.7-0.4-1.1-1-1.1c-0.6,0-1.1,0.4-1.1,1.2V43c0,0.3-0.2,0.5-0.5,0.5
			c-0.3,0-0.5-0.2-0.5-0.5V39.2z"/>
		<path class="st0" d="M129.2,42.1L129.2,42.1c0-1,0.8-1.5,1.9-1.5c0.5,0,0.9,0.1,1.3,0.2v-0.1c0-0.7-0.4-1-1.2-1
			c-0.4,0-0.7,0.1-1,0.2c-0.1,0-0.1,0-0.2,0c-0.2,0-0.5-0.2-0.5-0.4c0-0.2,0.1-0.4,0.3-0.4c0.4-0.2,0.9-0.3,1.5-0.3
			c0.7,0,1.2,0.2,1.6,0.5c0.3,0.3,0.5,0.8,0.5,1.5V43c0,0.3-0.2,0.5-0.5,0.5c-0.3,0-0.5-0.2-0.5-0.5v-0.2c-0.3,0.4-0.8,0.7-1.5,0.7
			C129.9,43.6,129.2,43,129.2,42.1z M132.4,41.8v-0.3c-0.3-0.1-0.6-0.2-1.1-0.2c-0.7,0-1.1,0.3-1.1,0.8v0c0,0.5,0.4,0.7,0.9,0.7
			C131.8,42.8,132.4,42.4,132.4,41.8z"/>
		<path class="st0" d="M134.8,37.4c0-0.3,0.2-0.5,0.5-0.5c0.3,0,0.5,0.2,0.5,0.5V43c0,0.3-0.2,0.5-0.5,0.5c-0.3,0-0.5-0.2-0.5-0.5
			V37.4z"/>
	</g>
	<g>
		<path class="st0" d="M35.2,7.3h5.5v9.9h10.2V7.3h5.5v25.1h-5.5V22.3H40.7v10.1h-5.5V7.3z"/>
		<path class="st0" d="M61.3,19.9L61.3,19.9c0-7.2,5.6-13,13.4-13S88,12.6,88,19.7v0.1c0,7.1-5.6,13-13.4,13
			C66.9,32.8,61.3,27,61.3,19.9z M82.2,19.9L82.2,19.9c0-4.4-3.2-8-7.6-8c-4.4,0-7.5,3.5-7.5,7.8v0.1c0,4.3,3.2,7.9,7.6,7.9
			C79.1,27.7,82.2,24.2,82.2,19.9z"/>
		<path class="st0" d="M92.9,7.3h10.2c6,0,9.6,3.5,9.6,8.7V16c0,5.8-4.5,8.8-10.1,8.8h-4.2v7.5h-5.5V7.3z M102.8,19.9
			c2.8,0,4.4-1.6,4.4-3.8V16c0-2.5-1.7-3.8-4.5-3.8h-4.3v7.7H102.8z"/>
		<path class="st0" d="M116.8,7.3h18.9v4.9h-13.4v5.1h11.8v4.9h-11.8v5.3h13.6v4.9h-19.1V7.3z"/>
	</g>
	<g>
		<path class="st1" d="M18.3,0c-2.7,2.3-7.3,8-7,14.6c0.3,6.3,3,9.6,3,9.6s4.6-2.7,6.6-9.9C22.4,9,20.6,3.6,18.3,0z"/>
		<path class="st1" d="M0.2,13.8c3.2,1,9.2,3.9,11.4,9.7c2.2,5.5,1.3,9.6,1.3,9.6S8,32.5,3.5,27C0.2,23.1-0.4,17.8,0.2,13.8z"/>
		<path class="st1" d="M27.4,17.7c-3.3,1.2-9.4,5.2-11.5,11.5c-2,6-1.2,10.2-1.2,10.2s5.5-1.4,10-7.4C28,27.6,28.3,22,27.4,17.7z"/>
		<path class="st0" d="M16,47c-0.7,0.2-1.5-0.2-1.6-0.9c-0.7-2.7-1.2-5.5-1.4-8.4c-0.3-3.3-0.1-6.6,0.2-9.8c0.3-3.2,0.9-6.4,1.4-9.6
			c0.6-3.2,1.2-6.3,2.1-9.4c-0.6,3.2-0.9,6.4-1.2,9.5c-0.2,1.6-0.3,3.2-0.4,4.8l-0.2,2.4c0,0.8-0.1,1.6-0.1,2.4
			c-0.1,1.6-0.1,3.2,0,4.8c0.1,1.6,0.2,3.1,0.4,4.7c0.4,2.7,1,5.3,1.8,7.9C17,46.1,16.7,46.8,16,47L16,47z"/>
		<path class="st0" d="M14.5,43.9c-0.1-1.6-0.1-3.2,0.1-4.8c0.1-0.8,0.3-1.6,0.6-2.4c0.3-0.8,0.7-1.5,1.1-2.2c0.4-0.7,0.8-1.4,1.3-2
			c0.5-0.6,1-1.2,1.5-1.9c1-1.2,2-2.4,3.2-3.5c-1,1.2-1.8,2.6-2.5,3.9c-0.4,0.7-0.7,1.4-1.1,2.1c-0.2,0.3-0.4,0.7-0.6,1
			c-0.2,0.3-0.4,0.7-0.6,1c-0.7,1.3-1.3,2.7-1.4,4.1c-0.2,1.5,0,3,0.1,4.5L14.5,43.9z"/>
		<path class="st0" d="M13,38.7c-0.2-1.5-0.4-3-0.8-4.4c-0.4-1.5-0.9-2.9-1.4-4.2c-0.1-0.3-0.3-0.7-0.5-1c-0.2-0.3-0.3-0.7-0.5-1
			c-0.3-0.7-0.6-1.4-1-2c-0.7-1.3-1.6-2.6-2.6-3.8c1.2,1,2.3,2.1,3.3,3.3c0.5,0.6,1,1.2,1.4,1.9c0.2,0.3,0.4,0.7,0.6,1
			c0.2,0.3,0.3,0.7,0.5,1c0.7,1.4,1.2,2.9,1.7,4.4c0.4,1.5,0.8,3,1,4.6L13,38.7z"/>
	</g>
</g>
</svg>
